<svg width="97" height="97" viewBox="0 0 97 97" fill="none" xmlns="http://www.w3.org/2000/svg">
<mask id="mask0_139_5" style="mask-type:alpha" maskUnits="userSpaceOnUse" x="-1" y="0" width="98" height="98">
<path d="M96 1C64 1.36994 6.29508 1.88786 0 1V52.6069V97H96V1Z" fill="#D9D9D9" stroke="black"/>
</mask>
<g mask="url(#mask0_139_5)">
<path fill-rule="evenodd" clip-rule="evenodd" d="M3.89209 60.7371L74.6117 0.963623V21.0421C74.6117 22.2033 74.0662 23.3169 73.0948 24.138L16.8424 71.6832L3.89209 60.7371ZM25.5298 79.0257L74.6117 37.5405V57.6192C74.6117 58.7802 74.0662 59.8938 73.0948 60.7149L51.431 79.0257L55.6942 82.6291L68.6448 93.5754H42.7436L38.4801 89.9718L25.5298 79.0257ZM472.15 60.6383L484.722 68.1888C478.818 74.7778 469.609 79.016 459.263 79.016C441.443 79.016 426.997 66.4468 426.997 50.942C426.997 35.4371 441.443 22.8681 459.263 22.8681C469.609 22.8681 478.818 27.1061 484.722 33.6953L472.15 41.2458C469.054 37.9714 464.427 35.8863 459.263 35.8863C449.964 35.8863 442.399 42.6401 442.399 50.942C442.399 59.2438 449.964 65.9978 459.263 65.9978C464.427 65.9978 469.054 63.9127 472.15 60.6383ZM131.289 45.6078H157.301L152.332 57.9605H131.289V79.0158H116.105V22.8684H166.449L161.479 35.2209H131.289V45.6078ZM346.097 22.8684H395.445V35.2209H378.363V79.0158H363.179V35.2209H346.097V22.8684ZM402.004 79.016H417.544V22.8684H402.004V79.016ZM310.872 57.9104L318.559 37.5469L326.246 57.9104H310.872ZM308.879 22.8684L286.293 79.0158H302.9L306.195 70.2631H330.922L334.217 79.0158H350.825L328.239 22.8684H308.879ZM265.037 22.8684H280.221V79.0158H268.833L243.21 48.5358V79.0158H228.026V22.8684H239.414L265.037 53.3483V22.8684ZM182.001 57.9104L189.688 37.5469L197.376 57.9104H182.001ZM180.009 22.8684L157.422 79.0158H174.03L177.325 70.2631H202.052L205.347 79.0158H221.954L199.368 22.8684H180.009Z" fill="#0093A1"/>
</g>
</svg>
